<svg xmlns="http://www.w3.org/2000/svg" width="145.25" height="39.699"><g data-name="Grupo 317" fill="#fff"><path data-name="Rectángulo 52" d="M61.178.62h2.468v39.079h-2.468z"/><path data-name="Trazado 774" d="M29.698 1.976l12.185 12.185v22.745H2.791V3.4h16.753v13.961h2.792V.607H-.002v39.091h44.676V13.003l-13-13z"/><path data-name="Trazado 775" d="M86.126 5.638c-.044-.044-.085-.083-.124-.118s-.081-.074-.124-.118a2.914 2.914 0 00.667-1.884 2.955 2.955 0 00-.229-1.158 3.142 3.142 0 00-.648-.975 2.945 2.945 0 00-1.361-.772h-3.691v10.1h4.1a3.4 3.4 0 00.752-.3 2.894 2.894 0 00.661-.5 3.048 3.048 0 00.661-3.311 2.884 2.884 0 00-.664-.964zm-3.743-3.363h1.164a1.2 1.2 0 01.478.1 1.188 1.188 0 01.393.268 1.327 1.327 0 01.261.4 1.2 1.2 0 01.1.478 1.185 1.185 0 01-.1.484 1.252 1.252 0 01-.261.386 1.233 1.233 0 01-.393.262 1.2 1.2 0 01-.478.1h-1.164zm2.5 6.386a1.213 1.213 0 01-.89.367h-1.609V6.515h1.609a1.259 1.259 0 01.89 2.146z"/><path data-name="Trazado 776" d="M93.36 10.703h3.756V8.945H93.36v-2.67h3.756V4.508H93.36V2.283h3.756V.608h-5.522v10.1h1.766z"/><path data-name="Trazado 777" d="M104.734 8.949a.9.9 0 01-.418-.072 1.088 1.088 0 01-.341-.229l-1.151-1.178-1.256 1.23 1.151 1.178a2.836 2.836 0 00.956.641 2.759 2.759 0 001.047.2h.039a2.559 2.559 0 001.086-.236 2.311 2.311 0 00.5-.275 3.11 3.11 0 00.988-1.256 2.782 2.782 0 00.189-1.021 2.6 2.6 0 00-.177-1.021 2.864 2.864 0 00-.543-.877l-.039-.039-2.617-2.29a1.036 1.036 0 01.131-1.453l.026-.026a1.035 1.035 0 01.772-.249 1.018 1.018 0 01.72.392l.838 1.047 1.387-1.1-.851-1.06a2.581 2.581 0 00-.864-.719 2.843 2.843 0 00-.51-.209 2.794 2.794 0 00-.55-.1 2.9 2.9 0 00-1.086.1 2.762 2.762 0 00-1 .55l-.039.026a3.072 3.072 0 00-.694.9 2.615 2.615 0 00-.288 1.06 2.762 2.762 0 00.144 1.086 3.983 3.983 0 00.242.5 2.729 2.729 0 00.333.465l.039.039 2.618 2.29a.969.969 0 01.249.687 1.044 1.044 0 01-.288.687.972.972 0 01-.743.332z"/><path data-name="Trazado 778" d="M115.017 10.717h1.767V2.329h2.5V.615h-6.713v1.714h2.447z"/><path data-name="Trazado 779" d="M81.925 21.056l1.609-.026a2.737 2.737 0 00.91-.288 3.129 3.129 0 00.765-.563 2.873 2.873 0 00.661-.968 3.005 3.005 0 000-2.3 3.082 3.082 0 00-1.891-1.714h-3.821v10.064h1.767zm0-4.227h1.165a1.2 1.2 0 01.478.1 1.328 1.328 0 01.4.262 1.226 1.226 0 01.268 1.354 1.2 1.2 0 01-.268.386 1.326 1.326 0 01-.4.262 1.206 1.206 0 01-.478.1h-1.165z"/><path data-name="Trazado 780" d="M92.578 25.243h3.755v-1.754h-3.755v-8.336h-1.767v10.1h1.767z"/><path data-name="Trazado 781" d="M103.047 15.114l-3.834 10.142h1.885l.851-2.225h4.148l.864 2.225h1.9l-3.939-10.142zm-.432 6.15l1.374-3.651 1.426 3.651z"/><path data-name="Trazado 782" d="M113.922 17.875a3.15 3.15 0 011.086-.72 3.366 3.366 0 012.473 0 3.15 3.15 0 011.087.72l1.256-1.243a5.111 5.111 0 00-3.573-1.492 5.072 5.072 0 00-1.911.38 4.893 4.893 0 00-1.675 1.112 5.021 5.021 0 00-1.113 1.662 5.306 5.306 0 00-.366 1.911 5.024 5.024 0 00.092.968 5.01 5.01 0 001.387 2.6 4.886 4.886 0 001.675 1.112 5.027 5.027 0 001.911.367 5.023 5.023 0 003.573-1.479l-1.256-1.243a3.244 3.244 0 01-2.316.955 3.288 3.288 0 01-1.27-.249 3.22 3.22 0 01-1.06-.707 3.274 3.274 0 01-.719-1.067 3.335 3.335 0 010-2.526 3.275 3.275 0 01.719-1.061z"/><path data-name="Trazado 783" d="M129.285 23.49h-3.756v-2.67h3.756v-1.767h-3.756v-2.225h3.756v-1.675h-5.522v10.1h1.767v-.013h3.756z"/><path data-name="Trazado 784" d="M79.517 31.31h2.447v8.389h1.767V31.31h2.5v-1.714h-6.713z"/><path data-name="Trazado 785" d="M98.61 30.59a5.329 5.329 0 00-7.538 0 4.69 4.69 0 00-.661.792 5.366 5.366 0 00-.478.9 5.24 5.24 0 00-.431 2.081 5.179 5.179 0 00.431 2.081 5.367 5.367 0 00.478.9 5.752 5.752 0 001.453 1.453 5.346 5.346 0 00.9.478 5.172 5.172 0 002.081.432 5.231 5.231 0 002.08-.432 5.341 5.341 0 00.9-.478 4.73 4.73 0 00.792-.661 5.329 5.329 0 000-7.538zm-.491 5.156a3.585 3.585 0 01-1.9 1.9 3.421 3.421 0 01-1.38.281 3.475 3.475 0 01-1.388-.281 3.571 3.571 0 01-1.9-1.9 3.471 3.471 0 01-.281-1.387 3.425 3.425 0 01.281-1.381 3.586 3.586 0 011.9-1.9 3.48 3.48 0 011.388-.281 3.425 3.425 0 011.38.281 3.6 3.6 0 011.9 1.9 3.434 3.434 0 01.282 1.381 3.48 3.48 0 01-.282 1.387z"/><path data-name="Trazado 786" d="M111.933 29.596h-1.767v10.1h1.767v-.013h3.755V37.93h-3.755z"/><path data-name="Rectángulo 53" d="M120.19 29.596h1.767v10.103h-1.767z"/><path data-name="Trazado 787" d="M131.536 37.225l-2.97-7.643h-1.9l3.952 10.116h1.858l3.834-10.116h-1.884z"/><path data-name="Trazado 788" d="M145.25 31.271v-1.675h-5.522v10.1h1.767v-.013h3.756V37.93h-3.756v-2.67h3.756v-1.767h-3.756v-2.225z"/></g></svg>