<svg xmlns="http://www.w3.org/2000/svg" width="145.25" height="39.699" viewBox="0 0 145.25 39.699">
  <g id="Grupo_317" data-name="Grupo 317" transform="translate(-2109.892 -790.024)">
    <rect id="Rect치ngulo_52" data-name="Rect치ngulo 52" width="2.468" height="39.079" transform="translate(2171.07 790.644)" fill="#fff"/>
    <path id="Trazado_774" data-name="Trazado 774" d="M2139.59,792l12.185,12.185V826.93h-39.092V793.424h16.753v13.961h2.792V790.631h-22.338v39.091h44.676v-25.13h0v-1.565l-13-13Z" fill="#fff"/>
    <path id="Trazado_775" data-name="Trazado 775" d="M2397.17,797.193c-.044-.044-.085-.083-.124-.118s-.081-.074-.124-.118a2.914,2.914,0,0,0,.667-1.884,2.955,2.955,0,0,0-.229-1.158,3.142,3.142,0,0,0-.648-.975,2.945,2.945,0,0,0-1.361-.772h-3.691v10.1h4.1a3.4,3.4,0,0,0,.752-.3,2.894,2.894,0,0,0,.661-.5,3.048,3.048,0,0,0,.661-3.311A2.884,2.884,0,0,0,2397.17,797.193Zm-3.743-3.363h1.164a1.2,1.2,0,0,1,.478.1,1.188,1.188,0,0,1,.393.268,1.327,1.327,0,0,1,.261.4,1.2,1.2,0,0,1,.1.478,1.185,1.185,0,0,1-.1.484,1.252,1.252,0,0,1-.261.386,1.233,1.233,0,0,1-.393.262,1.2,1.2,0,0,1-.478.1h-1.164Zm2.5,6.386a1.213,1.213,0,0,1-.89.367h-1.609V798.07h1.609a1.259,1.259,0,0,1,.89,2.146Z" transform="translate(-201.152 -1.531)" fill="#fff"/>
    <path id="Trazado_776" data-name="Trazado 776" d="M2431.8,802.258h3.756V800.5H2431.8v-2.67h3.756v-1.767H2431.8v-2.225h3.756v-1.675h-5.522v10.1h1.766Z" transform="translate(-228.548 -1.531)" fill="#fff"/>
    <path id="Trazado_777" data-name="Trazado 777" d="M2468.056,799.492a.9.9,0,0,1-.418-.072,1.088,1.088,0,0,1-.341-.229l-1.151-1.178-1.256,1.23,1.151,1.178a2.836,2.836,0,0,0,.956.641,2.759,2.759,0,0,0,1.047.2h.039a2.559,2.559,0,0,0,1.086-.236,2.311,2.311,0,0,0,.5-.275,3.11,3.11,0,0,0,.988-1.256,2.782,2.782,0,0,0,.189-1.021,2.6,2.6,0,0,0-.177-1.021,2.864,2.864,0,0,0-.543-.877l-.039-.039-2.617-2.29a1.036,1.036,0,0,1,.131-1.453l.026-.026a1.035,1.035,0,0,1,.772-.249,1.018,1.018,0,0,1,.72.392l.838,1.047,1.387-1.1-.851-1.06a2.581,2.581,0,0,0-.864-.719,2.843,2.843,0,0,0-.51-.209,2.794,2.794,0,0,0-.55-.1,2.9,2.9,0,0,0-1.086.1,2.762,2.762,0,0,0-1,.55l-.039.026a3.072,3.072,0,0,0-.694.9,2.615,2.615,0,0,0-.288,1.06,2.762,2.762,0,0,0,.144,1.086,3.983,3.983,0,0,0,.242.5,2.729,2.729,0,0,0,.333.465l.039.039,2.618,2.29a.969.969,0,0,1,.249.687,1.044,1.044,0,0,1-.288.687A.972.972,0,0,1,2468.056,799.492Z" transform="translate(-253.43 -0.519)" fill="#fff"/>
    <path id="Trazado_778" data-name="Trazado 778" d="M2505.8,802.271h1.767v-8.388h2.5v-1.714h-6.713v1.714h2.447Z" transform="translate(-280.891 -1.53)" fill="#fff"/>
    <path id="Trazado_779" data-name="Trazado 779" d="M2391.827,848.988l1.609-.026a2.737,2.737,0,0,0,.91-.288,3.129,3.129,0,0,0,.765-.563,2.873,2.873,0,0,0,.661-.968,3.005,3.005,0,0,0,0-2.3,3.082,3.082,0,0,0-1.891-1.714h-3.821v10.064h1.767Zm0-4.227h1.165a1.2,1.2,0,0,1,.478.1,1.328,1.328,0,0,1,.4.262,1.226,1.226,0,0,1,.268,1.354,1.2,1.2,0,0,1-.268.386,1.326,1.326,0,0,1-.4.262,1.206,1.206,0,0,1-.478.1h-1.165Z" transform="translate(-200.01 -37.908)" fill="#fff"/>
    <path id="Trazado_780" data-name="Trazado 780" d="M2429.059,853.077h3.755v-1.754h-3.755v-8.336h-1.767v10.1h1.767Z" transform="translate(-226.589 -37.81)" fill="#fff"/>
    <path id="Trazado_781" data-name="Trazado 781" d="M2460.491,842.851l-3.834,10.142h1.885l.851-2.225h4.148l.864,2.225h1.9l-3.939-10.142Zm-.432,6.15,1.374-3.651,1.426,3.651Z" transform="translate(-247.552 -37.713)" fill="#fff"/>
    <path id="Trazado_782" data-name="Trazado 782" d="M2501.243,845.677a3.15,3.15,0,0,1,1.086-.72,3.366,3.366,0,0,1,2.473,0,3.15,3.15,0,0,1,1.087.72l1.256-1.243a5.111,5.111,0,0,0-3.573-1.492,5.072,5.072,0,0,0-1.911.38,4.893,4.893,0,0,0-1.675,1.112,5.021,5.021,0,0,0-1.113,1.662,5.306,5.306,0,0,0-.366,1.911,5.024,5.024,0,0,0,.092.968,5.01,5.01,0,0,0,1.387,2.6,4.886,4.886,0,0,0,1.675,1.112,5.027,5.027,0,0,0,1.911.367,5.023,5.023,0,0,0,3.573-1.479l-1.256-1.243a3.244,3.244,0,0,1-2.316.955,3.288,3.288,0,0,1-1.27-.249,3.22,3.22,0,0,1-1.06-.707,3.274,3.274,0,0,1-.719-1.067,3.335,3.335,0,0,1,0-2.526A3.275,3.275,0,0,1,2501.243,845.677Z" transform="translate(-277.429 -37.778)" fill="#fff"/>
    <path id="Trazado_783" data-name="Trazado 783" d="M2547.986,851.324h-3.756v-2.67h3.756v-1.767h-3.756v-2.225h3.756v-1.675h-5.522v10.1h1.767v-.013h3.756Z" transform="translate(-308.809 -37.81)" fill="#fff"/>
    <path id="Trazado_784" data-name="Trazado 784" d="M2387.819,895.18h2.447v8.389h1.767V895.18h2.5v-1.714h-6.713Z" transform="translate(-198.41 -73.846)" fill="#fff"/>
    <path id="Trazado_785" data-name="Trazado 785" d="M2431.826,893.056a5.329,5.329,0,0,0-7.538,0,4.69,4.69,0,0,0-.661.792,5.366,5.366,0,0,0-.478.9,5.24,5.24,0,0,0-.431,2.081,5.179,5.179,0,0,0,.431,2.081,5.367,5.367,0,0,0,.478.9,5.752,5.752,0,0,0,1.453,1.453,5.346,5.346,0,0,0,.9.478,5.172,5.172,0,0,0,2.081.432,5.231,5.231,0,0,0,2.08-.432,5.341,5.341,0,0,0,.9-.478,4.73,4.73,0,0,0,.792-.661,5.329,5.329,0,0,0,0-7.538Zm-.491,5.156a3.585,3.585,0,0,1-1.9,1.9,3.421,3.421,0,0,1-1.38.281,3.475,3.475,0,0,1-1.388-.281,3.571,3.571,0,0,1-1.9-1.9,3.471,3.471,0,0,1-.281-1.387,3.425,3.425,0,0,1,.281-1.381,3.586,3.586,0,0,1,1.9-1.9,3.48,3.48,0,0,1,1.388-.281,3.425,3.425,0,0,1,1.38.281,3.6,3.6,0,0,1,1.9,1.9,3.434,3.434,0,0,1,.282,1.381A3.48,3.48,0,0,1,2431.335,898.212Z" transform="translate(-223.324 -72.442)" fill="#fff"/>
    <path id="Trazado_786" data-name="Trazado 786" d="M2496.708,893.466h-1.767v10.1h1.767v-.013h3.755V901.8h-3.755Z" transform="translate(-274.883 -73.846)" fill="#fff"/>
    <rect id="Rect치ngulo_53" data-name="Rect치ngulo 53" width="1.767" height="10.103" transform="translate(2230.082 819.62)" fill="#fff"/>
    <path id="Trazado_787" data-name="Trazado 787" d="M2557.486,901.063l-2.97-7.643h-1.9l3.952,10.116h1.858l3.834-10.116h-1.884Z" transform="translate(-316.058 -73.814)" fill="#fff"/>
    <path id="Trazado_788" data-name="Trazado 788" d="M2603.785,895.141v-1.675h-5.522v10.1h1.767v-.013h3.756V901.8h-3.756v-2.67h3.756v-1.767h-3.756v-2.225Z" transform="translate(-348.643 -73.846)" fill="#fff"/>
  </g>
</svg>
