<svg id="Grupo_78" data-name="Grupo 78" xmlns="http://www.w3.org/2000/svg" width="244.024" height="73.557" viewBox="0 0 244.024 73.557">
  <path id="Trazado_428" data-name="Trazado 428" d="M-295.66,139.324v4.818h.214a10.772,10.772,0,0,1,4.667-4.379,13.6,13.6,0,0,1,5.905-1.372,16.162,16.162,0,0,1,6.245,1.033,9.456,9.456,0,0,1,3.862,2.885,11.412,11.412,0,0,1,1.961,4.481,28.4,28.4,0,0,1,.565,5.865v21.291h-9.5V154.393c0-2.858-.437-4.995-1.342-6.4-.877-1.4-2.469-2.1-4.74-2.1-2.593,0-4.459.767-5.609,2.309-1.168,1.535-1.769,4.07-1.769,7.59v18.154H-304.7V139.324Z" transform="translate(336.758 -118.608)" fill="#1d355d"/>
  <path id="Trazado_429" data-name="Trazado 429" d="M-224.6,176.483a11.681,11.681,0,0,1-2.433,4.991,14.646,14.646,0,0,1-5.433,3.913,23.27,23.27,0,0,1-9.5,1.607,22.782,22.782,0,0,1-5.176-.632,16.381,16.381,0,0,1-4.817-1.975,12.4,12.4,0,0,1-3.631-3.447,10.127,10.127,0,0,1-1.638-5.066h9.454a5.451,5.451,0,0,0,2.6,3.72,9.545,9.545,0,0,0,4.493,1.041c2.672,0,4.637-.8,5.851-2.412a9.473,9.473,0,0,0,1.769-6.092v-4.544h-.131a9.446,9.446,0,0,1-4.377,4.04,14.149,14.149,0,0,1-5.986,1.3,14.914,14.914,0,0,1-6.7-1.369,12.515,12.515,0,0,1-4.621-3.747,15.558,15.558,0,0,1-2.643-5.563,25.8,25.8,0,0,1-.845-6.723,21.445,21.445,0,0,1,.973-6.458,16.94,16.94,0,0,1,2.839-5.485A13.581,13.581,0,0,1-249.9,139.8a13.982,13.982,0,0,1,6.391-1.406,13.252,13.252,0,0,1,6,1.275,10.226,10.226,0,0,1,4.313,4.283h.131v-4.624h9.049v32.4a23.785,23.785,0,0,1-.583,4.76M-237.6,164.972a7.287,7.287,0,0,0,2.53-2.154,9.417,9.417,0,0,0,1.523-3.036,13.008,13.008,0,0,0,.487-3.58,19.219,19.219,0,0,0-.405-4.055,9.8,9.8,0,0,0-1.329-3.382,7.056,7.056,0,0,0-2.465-2.347,7.918,7.918,0,0,0-3.893-.864,7.091,7.091,0,0,0-3.457.8,7.149,7.149,0,0,0-2.4,2.177,9.231,9.231,0,0,0-1.41,3.148,15.441,15.441,0,0,0-.437,3.718,19.068,19.068,0,0,0,.369,3.711,10.7,10.7,0,0,0,1.269,3.317,7.557,7.557,0,0,0,2.38,2.407,6.781,6.781,0,0,0,3.685.945,7.583,7.583,0,0,0,3.552-.8" transform="translate(326.112 -118.608)" fill="#1d355d"/>
  <path id="Trazado_430" data-name="Trazado 430" d="M-197.613,165.643a8.519,8.519,0,0,0,6.164,2.062,8.589,8.589,0,0,0,4.946-1.427,6.181,6.181,0,0,0,2.548-3.049h8.351c-1.329,4.145-3.374,7.12-6.163,8.9a18.014,18.014,0,0,1-10.037,2.679,19.776,19.776,0,0,1-7.351-1.306,15.387,15.387,0,0,1-5.577-3.713,16.75,16.75,0,0,1-3.5-5.758,21.366,21.366,0,0,1-1.233-7.372,20.239,20.239,0,0,1,1.265-7.225,16.951,16.951,0,0,1,3.616-5.79,16.638,16.638,0,0,1,5.6-3.848,17.963,17.963,0,0,1,7.187-1.406,16.426,16.426,0,0,1,7.7,1.708,15.251,15.251,0,0,1,5.4,4.586,18.835,18.835,0,0,1,3.035,6.554,23.769,23.769,0,0,1,.664,7.7h-24.961c.131,3.076.924,5.321,2.351,6.7m10.736-18.22a6.716,6.716,0,0,0-5.2-1.87,8.305,8.305,0,0,0-3.763.77,7.79,7.79,0,0,0-2.419,1.9,7.141,7.141,0,0,0-1.279,2.413,11.255,11.255,0,0,0-.423,2.283h15.458a10.843,10.843,0,0,0-2.371-5.5" transform="translate(314.876 -118.608)" fill="#1d355d"/>
  <path id="Trazado_431" data-name="Trazado 431" d="M-154.564,174.224-166.4,139.6h9.94l7.315,23.635h.131l7.3-23.635h9.457l-11.746,34.621Z" transform="translate(304.98 -118.887)" fill="#1d355d"/>
  <path id="Trazado_432" data-name="Trazado 432" d="M-111.421,165.643a8.573,8.573,0,0,0,6.163,2.062,8.589,8.589,0,0,0,4.959-1.427,6,6,0,0,0,2.549-3.049h8.356q-2,6.217-6.165,8.9a18.029,18.029,0,0,1-10.039,2.679,19.851,19.851,0,0,1-7.351-1.306,15.235,15.235,0,0,1-5.56-3.713,16.636,16.636,0,0,1-3.521-5.758,21.043,21.043,0,0,1-1.247-7.372A20.658,20.658,0,0,1-122,149.435a17.194,17.194,0,0,1,3.62-5.79,16.655,16.655,0,0,1,5.592-3.848,17.973,17.973,0,0,1,7.187-1.406,16.542,16.542,0,0,1,7.72,1.708,15.354,15.354,0,0,1,5.382,4.586,19.086,19.086,0,0,1,3.033,6.554,24.607,24.607,0,0,1,.665,7.7h-24.976c.146,3.076.923,5.308,2.352,6.7m10.768-18.22a6.765,6.765,0,0,0-5.205-1.87,8.338,8.338,0,0,0-3.781.77,7.361,7.361,0,0,0-2.415,1.9,7.469,7.469,0,0,0-1.283,2.413,14.212,14.212,0,0,0-.437,2.283h15.49a11.579,11.579,0,0,0-2.369-5.5" transform="translate(295.07 -118.608)" fill="#1d355d"/>
  <path id="Trazado_433" data-name="Trazado 433" d="M-56.787,145.553a6.709,6.709,0,0,0-3.83,1.043,8.138,8.138,0,0,0-2.5,2.673,11.061,11.061,0,0,0-1.379,3.612,20.294,20.294,0,0,0-.4,3.911,19.487,19.487,0,0,0,.4,3.816,11.745,11.745,0,0,0,1.316,3.521,7.356,7.356,0,0,0,2.433,2.57,6.669,6.669,0,0,0,3.762,1.006,6.979,6.979,0,0,0,5.254-1.9,9.092,9.092,0,0,0,2.3-5.126h9.179c-.632,4.61-2.433,8.113-5.368,10.519a17.262,17.262,0,0,1-11.3,3.613,19.161,19.161,0,0,1-7.152-1.306,15.7,15.7,0,0,1-5.5-3.649,16.743,16.743,0,0,1-3.568-5.588,19.558,19.558,0,0,1-1.265-7.131,23.178,23.178,0,0,1,1.183-7.469,16.243,16.243,0,0,1,3.453-5.955,15.715,15.715,0,0,1,5.532-3.915,18.937,18.937,0,0,1,7.527-1.406,21.921,21.921,0,0,1,5.9.8,15.96,15.96,0,0,1,5.094,2.441,13,13,0,0,1,3.635,4.085,12.909,12.909,0,0,1,1.6,5.8h-9.29q-.928-5.966-7.023-5.961" transform="translate(283.839 -118.608)" fill="#1d355d"/>
  <path id="Trazado_434" data-name="Trazado 434" d="M-346.324,139.346v6.93l15.263,3.645v24.268h13.02V139.346Z" transform="translate(346.324 -118.828)" fill="#0091d5"/>
  <rect id="Rectángulo_37" data-name="Rectángulo 37" width="13.333" height="13.349" transform="translate(15.017 0)" fill="#0091d5"/>
  <rect id="Rectángulo_38" data-name="Rectángulo 38" width="1.363" height="8.189" transform="translate(109.404 65.305)" fill="#1d355d"/>
  <path id="Trazado_435" data-name="Trazado 435" d="M-187.686,197.494v5.475l-3.646-5.475h-1.177v8.189h1.363v-5.492l3.646,5.492h1.177v-8.189Z" transform="translate(310.979 -132.189)" fill="#1d355d"/>
  <path id="Trazado_436" data-name="Trazado 436" d="M-168.694,197.494l-2.253,5.11-2.308-5.11h-1.222v8.189h1.363v-4.626l1.621,3.588h1.081l1.577-3.558v4.6h1.363v-8.189Z" transform="translate(306.835 -132.189)" fill="#1d355d"/>
  <path id="Trazado_437" data-name="Trazado 437" d="M-149.9,200.488a5.233,5.233,0,0,0-.085-.862,2.741,2.741,0,0,0-.246-.72,2.55,2.55,0,0,0-.461-.618,3,3,0,0,0-.97-.647,3.085,3.085,0,0,0-2.319,0,2.949,2.949,0,0,0-.971.648,2.517,2.517,0,0,0-.461.617,2.628,2.628,0,0,0-.246.72,5.123,5.123,0,0,0-.086.862q-.01.455-.011,1.083t.011,1.088a5.131,5.131,0,0,0,.086.866,2.568,2.568,0,0,0,.246.718,2.593,2.593,0,0,0,.46.609,2.959,2.959,0,0,0,.971.647,3.02,3.02,0,0,0,1.159.228,3.033,3.033,0,0,0,1.16-.228,2.989,2.989,0,0,0,.97-.647,2.576,2.576,0,0,0,.46-.61,2.63,2.63,0,0,0,.247-.717,5.258,5.258,0,0,0,.085-.866h0q.01-.461.01-1.087t-.01-1.083m-1.368,2.079a4.636,4.636,0,0,1-.067.668,1.528,1.528,0,0,1-.133.42,1.3,1.3,0,0,1-.237.32,1.491,1.491,0,0,1-.509.336,1.639,1.639,0,0,1-1.216,0,1.487,1.487,0,0,1-.508-.337,1.241,1.241,0,0,1-.237-.32,1.514,1.514,0,0,1-.134-.419,4.668,4.668,0,0,1-.066-.668q-.015-.414-.015-1c0-.389.005-.72.015-1a4.728,4.728,0,0,1,.066-.669,1.527,1.527,0,0,1,.134-.418,1.267,1.267,0,0,1,.238-.32,1.487,1.487,0,0,1,.508-.336,1.617,1.617,0,0,1,.608-.116,1.6,1.6,0,0,1,.608.116,1.49,1.49,0,0,1,.508.335,1.3,1.3,0,0,1,.238.32,1.532,1.532,0,0,1,.133.419,4.661,4.661,0,0,1,.067.669c.01.276.015.607.015,1s0,.721-.015,1" transform="translate(302.534 -132.171)" fill="#1d355d"/>
  <path id="Trazado_438" data-name="Trazado 438" d="M-133.152,201.926a2.121,2.121,0,0,0-.433-.45,2.017,2.017,0,0,0,.35-.394,2.2,2.2,0,0,0,.375-1.258,2.365,2.365,0,0,0-.2-.979,2.145,2.145,0,0,0-.548-.745,2.35,2.35,0,0,0-.817-.457,3.122,3.122,0,0,0-.977-.15h-3.119v8.189h3.2a3.263,3.263,0,0,0,1.011-.149,2.3,2.3,0,0,0,.827-.466,2.113,2.113,0,0,0,.545-.773,2.655,2.655,0,0,0,.186-1.026,2.27,2.27,0,0,0-.406-1.343m-1.161-1.621a.8.8,0,0,1-.236.3,1.1,1.1,0,0,1-.386.186,2,2,0,0,1-.525.068h-1.694v-2.06h1.694a1.979,1.979,0,0,1,.525.069,1.1,1.1,0,0,1,.386.186.8.8,0,0,1,.236.3,1.118,1.118,0,0,1,.09.48,1.124,1.124,0,0,1-.09.48m-2.841,1.852h1.778a1.378,1.378,0,0,1,.949.3,1.012,1.012,0,0,1,.319.813,1.013,1.013,0,0,1-.319.813,1.382,1.382,0,0,1-.949.3h-1.778Z" transform="translate(298.572 -132.189)" fill="#1d355d"/>
  <rect id="Rectángulo_39" data-name="Rectángulo 39" width="1.363" height="8.189" transform="translate(173.238 65.305)" fill="#1d355d"/>
  <path id="Trazado_439" data-name="Trazado 439" d="M-108.267,204.382v-6.887h-1.363v8.189h5.284v-1.3Z" transform="translate(291.934 -132.189)" fill="#1d355d"/>
  <rect id="Rectángulo_40" data-name="Rectángulo 40" width="1.363" height="8.189" transform="translate(194.461 65.305)" fill="#1d355d"/>
  <path id="Trazado_440" data-name="Trazado 440" d="M-79.51,197.479h-.511l-.018-.05-.018.05h-.511l-3.014,8.189h1.46l.643-1.795H-78.6l.643,1.795h1.46Zm-1.506,5.093.977-2.746.977,2.746Z" transform="translate(285.949 -132.174)" fill="#1d355d"/>
  <path id="Trazado_441" data-name="Trazado 441" d="M-61.672,202.126a2.367,2.367,0,0,0,.95-.637,2.332,2.332,0,0,0,.565-1.612,2.548,2.548,0,0,0-.193-1.009,2.12,2.12,0,0,0-.551-.767,2.363,2.363,0,0,0-.811-.457,3.049,3.049,0,0,0-.963-.15h-3.213v8.189h1.363v-3.4h1.387l1.763,3.4h1.562Zm-2.853-3.331h1.777a1.939,1.939,0,0,1,.541.072.97.97,0,0,1,.37.194.861.861,0,0,1,.23.319,1.306,1.306,0,0,1,.087.507,1.306,1.306,0,0,1-.087.507.854.854,0,0,1-.229.319.99.99,0,0,1-.37.195,1.929,1.929,0,0,1-.541.072h-1.777Z" transform="translate(281.883 -132.189)" fill="#1d355d"/>
  <rect id="Rectángulo_41" data-name="Rectángulo 41" width="1.363" height="8.189" transform="translate(229.034 65.305)" fill="#1d355d"/>
  <path id="Trazado_442" data-name="Trazado 442" d="M-34.624,197.479h-.511l-.018-.05-.018.05h-.511l-3.013,8.189h1.46l.642-1.795h2.879l.643,1.795h1.46Zm-1.506,5.093.977-2.746.977,2.746Z" transform="translate(275.634 -132.174)" fill="#1d355d"/>
</svg>
