<svg xmlns="http://www.w3.org/2000/svg" width="25" height="22" viewBox="0 0 25 22">
  <g id="right-arrow" transform="translate(0 -41.346)">
    <g id="Grupo_345" data-name="Grupo 345" transform="translate(0 41.346)">
      <path id="Trazado_962" data-name="Trazado 962" d="M24.6,51.319l-9.028-9.55a1.32,1.32,0,0,0-1.935,0l-.82.867a1.48,1.48,0,0,0-.4,1.023,1.51,1.51,0,0,0,.4,1.035l5.267,5.584H1.351A1.375,1.375,0,0,0,0,51.7v1.226a1.432,1.432,0,0,0,1.351,1.486H18.144l-5.327,5.615a1.492,1.492,0,0,0,0,2.032l.82.864a1.32,1.32,0,0,0,1.935,0l9.028-9.55a1.52,1.52,0,0,0,0-2.054Z" transform="translate(0 -41.346)" fill="#0091d5"/>
    </g>
  </g>
</svg>
